HIERARCHY
ROOT Hips
{
	OFFSET 0.000000 0.000000 0.000000
	CHANNELS 6 Xposition Yposition Zposition Yrotation Xrotation Zrotation
	JOINT Chest
	{
		OFFSET 0.000000 -0.009281 11.569106
		CHANNELS 3 Yrotation Xrotation Zrotation
		JOINT Chest2
		{
			OFFSET -0.000000 0.016865 9.269641
			CHANNELS 3 Yrotation Xrotation Zrotation
			JOINT Chest3
			{
				OFFSET -0.000000 0.000001 8.374491
				CHANNELS 3 Yrotation Xrotation Zrotation
				JOINT Chest4
				{
					OFFSET -0.000000 0.000001 8.374493
					CHANNELS 3 Yrotation Xrotation Zrotation
					JOINT Neck
					{
						OFFSET -0.000000 0.000002 12.152554
						CHANNELS 3 Yrotation Xrotation Zrotation
						JOINT Head
						{
							OFFSET -0.000000 0.040101 7.802319
							CHANNELS 3 Yrotation Xrotation Zrotation
							End Site
							{
								OFFSET -0.000000 0.020947 14.853096
							}
						}
					}
					JOINT RightCollar
					{
						OFFSET 2.894404 0.000001 6.791374
						CHANNELS 3 Yrotation Xrotation Zrotation
						JOINT RightShoulder
						{
							OFFSET 13.574684 0.000001 0.000000
							CHANNELS 3 Yrotation Xrotation Zrotation
							JOINT RightElbow
							{
								OFFSET 23.923903 0.000002 0.000000
								CHANNELS 3 Yrotation Xrotation Zrotation
								JOINT RightWrist
								{
									OFFSET 19.846718 0.012767 0.000000
									CHANNELS 3 Yrotation Xrotation Zrotation
									End Site
									{
										OFFSET 14.973145 0.000001 0.000000
									}
								}
							}
						}
					}
					JOINT LeftCollar
					{
						OFFSET -2.894404 0.000001 6.791374
						CHANNELS 3 Yrotation Xrotation Zrotation
						JOINT LeftShoulder
						{
							OFFSET -13.574684 -0.000001 0.000000
							CHANNELS 3 Yrotation Xrotation Zrotation
							JOINT LeftElbow
							{
								OFFSET -23.923903 -0.000002 0.000000
								CHANNELS 3 Yrotation Xrotation Zrotation
								JOINT LeftWrist
								{
									OFFSET -19.846718 0.012763 0.000000
									CHANNELS 3 Yrotation Xrotation Zrotation
									End Site
									{
										OFFSET -14.973145 -0.000001 0.000000
									}
								}
							}
						}
					}
				}
			}
		}
	}
	JOINT RightHip
	{
		OFFSET 9.469263 0.004643 0.045487
		CHANNELS 3 Yrotation Xrotation Zrotation
		JOINT RightKnee
		{
			OFFSET 0.000000 0.002661 -40.478676
			CHANNELS 3 Yrotation Xrotation Zrotation
			JOINT RightAnkle
			{
				OFFSET 0.000000 0.049106 -35.224068
				CHANNELS 3 Yrotation Xrotation Zrotation
				JOINT RightToe
				{
					OFFSET -0.000001 12.539529 -6.151390
					CHANNELS 3 Yrotation Xrotation Zrotation
					End Site
					{
						OFFSET -0.000001 5.044994 -1.291870
					}
				}
			}
		}
	}
	JOINT LeftHip
	{
		OFFSET -9.469263 0.004641 0.045487
		CHANNELS 3 Yrotation Xrotation Zrotation
		JOINT LeftKnee
		{
			OFFSET 0.000000 0.002661 -40.478676
			CHANNELS 3 Yrotation Xrotation Zrotation
			JOINT LeftAnkle
			{
				OFFSET 0.000000 0.049106 -35.224068
				CHANNELS 3 Yrotation Xrotation Zrotation
				JOINT LeftToe
				{
					OFFSET -0.000001 12.539529 -6.151390
					CHANNELS 3 Yrotation Xrotation Zrotation
					End Site
					{
						OFFSET -0.000001 5.044994 -1.291870
					}
				}
			}
		}
	}
}
MOTION
Frames: 12
Frame Time: 0.016667
12.073591 5.353250 82.983849 -4.631582 -1.451153 -108.980743 -0.968169 -3.617338 1.972027 -0.415405 -1.611515 0.891487 -0.415404 -1.611516 0.891484 -0.309183 -1.209246 0.667473 1.718903 -17.121887 -4.580486 1.591147 4.365273 -7.876257 9.444189 6.808682 -6.183496 44.818233 43.278889 11.078931 25.316291 34.933798 27.848997 26.102401 15.533867 -7.313053 -9.037697 -0.431141 -6.808953 -46.551916 44.335601 -16.145203 -16.973707 32.004132 -22.439856 -31.448981 31.681925 -4.724634 -0.332986 -7.256698 -2.003383 2.096288 -3.398621 -7.305718 -1.655423 5.633935 1.549817 -0.153841 -0.082242 -0.003199 -0.414411 -8.579670 1.987277 0.500400 -2.020534 0.384622 -0.067190 5.885104 1.904157 0.103036 0.073944 -0.004149 
12.062803 5.357996 82.984077 -4.460738 -1.388014 -108.956066 -1.002490 -3.719031 1.995908 -0.429676 -1.656824 0.900826 -0.429676 -1.656824 0.900830 -0.319792 -1.243255 0.674410 1.770445 -17.077102 -4.588281 1.681512 4.450728 -7.873724 9.214225 6.757455 -6.235292 43.850579 43.662196 10.406216 24.381194 34.128519 27.177154 26.512740 14.180601 -7.743018 -8.859394 -0.141168 -6.750818 -45.441812 44.944970 -15.417817 -16.167411 31.247217 -21.746013 -31.612540 30.343177 -3.659238 -0.321544 -7.135187 -1.981811 2.069813 -3.258845 -7.383509 -1.610802 5.563882 1.584740 -0.148711 -0.079957 -0.004188 -0.404556 -8.437096 2.040088 0.485114 -1.905243 0.322560 -0.089431 5.800050 1.875995 0.104007 0.067757 -0.003015 
12.049968 5.365954 82.983276 -4.280731 -1.323832 -108.934270 -1.032057 -3.818920 2.014270 -0.441669 -1.700776 0.908318 -0.441669 -1.700775 0.908317 -0.328699 -1.276243 0.679958 1.817975 -17.057426 -4.590370 1.767695 4.489547 -7.861453 8.870131 6.572970 -6.318523 43.074608 44.310746 9.883117 23.272714 32.990726 26.321891 26.885740 12.688565 -8.114973 -8.708472 0.269959 -6.629805 -44.247045 45.478487 -14.622354 -15.343135 30.530088 -21.050327 -31.823275 28.885976 -2.524209 -0.312453 -6.995747 -1.960361 2.047862 -3.133663 -7.466673 -1.571314 5.500614 1.621839 -0.140585 -0.079383 -0.005425 -0.392954 -8.279181 2.096388 0.465969 -1.800528 0.258481 -0.104261 5.723241 1.840663 0.101964 0.058707 -0.002405 
12.034489 5.375754 82.982956 -4.103747 -1.259911 -108.915487 -1.070033 -3.931877 2.051846 -0.457511 -1.751051 0.923843 -0.457511 -1.751052 0.923843 -0.340460 -1.313984 0.691517 1.875935 -17.056642 -4.604071 1.870065 4.493486 -7.866623 8.464146 6.591194 -6.530942 42.205487 44.866399 9.237188 22.269808 31.772029 25.403799 27.315446 11.217285 -8.485381 -8.529179 0.794996 -6.492534 -43.036199 45.962737 -13.819424 -14.607181 29.900693 -20.409742 -31.994884 27.253542 -1.289671 -0.314297 -6.844389 -1.941045 2.042840 -3.033859 -7.543789 -1.541127 5.447039 1.667156 -0.132502 -0.078147 -0.006561 -0.385286 -8.119492 2.158009 0.447156 -1.703012 0.192172 -0.117167 5.648709 1.822744 0.100686 0.051173 -0.001511 
12.014611 5.387409 82.984573 -3.941322 -1.200021 -108.898070 -1.100796 -4.058741 2.095169 -0.470692 -1.808572 0.940763 -0.470692 -1.808572 0.940759 -0.350206 -1.357158 0.704120 1.926637 -17.075546 -4.620255 1.959099 4.460461 -7.878534 8.132909 6.898903 -6.790681 41.037587 45.050248 8.398162 21.482528 30.823305 24.593413 27.830388 9.880435 -8.956931 -8.370482 1.303506 -6.329992 -41.786667 46.449036 -13.057865 -13.979713 29.355357 -19.794153 -32.234135 25.630640 -0.175116 -0.318970 -6.687184 -1.894748 2.045125 -2.968801 -7.632088 -1.518011 5.403544 1.685189 -0.124263 -0.072821 -0.006407 -0.379622 -7.965205 2.219459 0.433305 -1.617808 0.139060 -0.136607 5.574736 1.788304 0.100723 0.046838 -0.000429 
11.989937 5.398335 82.987442 -3.799043 -1.145469 -108.883167 -1.127098 -4.198601 2.140743 -0.482301 -1.871883 0.958349 -0.482302 -1.871883 0.958347 -0.358759 -1.404673 0.717222 1.967491 -17.116789 -4.632911 2.032204 4.385603 -7.886960 7.732838 7.176960 -7.027936 39.984552 45.034524 7.594553 20.768759 30.135905 23.993903 28.393011 8.593631 -9.526650 -8.251196 1.845557 -6.199640 -40.426449 46.903083 -12.201406 -13.420376 28.879696 -19.247560 -32.478704 24.198578 0.903609 -0.324397 -6.535035 -1.830118 2.042112 -2.927272 -7.729221 -1.491892 5.364084 1.716707 -0.116435 -0.064979 -0.006073 -0.375203 -7.825493 2.285782 0.421236 -1.539536 0.083101 -0.160819 5.498257 1.751550 0.102777 0.046284 0.001121 
11.962893 5.406186 82.990463 -3.681392 -1.098771 -108.863189 -1.151705 -4.345129 2.193266 -0.493147 -1.937450 0.979498 -0.493148 -1.937450 0.979498 -0.366721 -1.453883 0.732990 2.002740 -17.186390 -4.649748 2.094835 4.257747 -7.904579 7.374951 7.427931 -7.210501 38.927943 44.999267 6.786297 19.973833 29.402564 23.498772 28.827889 7.278389 -10.064276 -8.092219 2.394956 -6.053121 -39.122285 47.234627 -11.388596 -12.877283 28.520666 -18.800640 -32.660342 22.775054 2.048051 -0.319369 -6.410975 -1.776477 2.030407 -2.881417 -7.820559 -1.468113 5.322161 1.726272 -0.110190 -0.057641 -0.005557 -0.366769 -7.705665 2.350641 0.407216 -1.471363 0.024930 -0.187892 5.427374 1.714098 0.105305 0.044780 0.002679 
11.935211 5.410068 82.992401 -3.576905 -1.054986 -108.837582 -1.178079 -4.485686 2.245431 -0.504520 -1.999795 1.001108 -0.504520 -1.999795 1.001108 -0.375076 -1.500680 0.749106 2.030233 -17.294650 -4.660589 2.147008 4.057949 -7.913178 7.152736 7.681197 -7.311929 37.684367 45.099968 5.926816 19.029962 28.355274 22.896339 29.160260 5.994546 -10.515975 -7.922526 2.920920 -5.888273 -37.875066 47.499314 -10.646134 -12.292210 28.215940 -18.462592 -32.548478 21.189180 3.487268 -0.319386 -6.297783 -1.750264 2.024595 -2.843860 -7.888139 -1.448740 5.286652 1.749297 -0.103833 -0.052649 -0.005805 -0.360254 -7.598194 2.405793 0.395994 -1.406086 -0.025878 -0.211779 5.360851 1.693834 0.103166 0.041526 0.003645 
11.907215 5.414189 82.992668 -3.482688 -1.015146 -108.803657 -1.198564 -4.621779 2.288053 -0.512938 -2.060182 1.018334 -0.512938 -2.060182 1.018333 -0.381230 -1.545999 0.761939 2.040964 -17.443866 -4.653288 2.176345 3.781817 -7.893423 6.904736 7.913103 -7.455172 36.468993 45.291374 5.165739 18.014325 27.004625 22.146602 29.488314 4.655369 -10.956863 -7.781016 3.401257 -5.728726 -36.657304 47.864630 -9.981709 -11.643310 27.719997 -18.181117 -32.158303 19.177074 5.132382 -0.314734 -6.193478 -1.726080 2.017062 -2.812204 -7.947642 -1.434653 5.255700 1.750105 -0.096474 -0.049620 -0.006771 -0.346562 -7.496052 2.443056 0.378987 -1.350884 -0.057399 -0.233458 5.304281 1.634703 0.099111 0.033645 0.004318 
11.875836 5.416538 82.992477 -3.397857 -0.981477 -108.762484 -1.210503 -4.759002 2.325508 -0.517405 -2.121474 1.032784 -0.517406 -2.121474 1.032786 -0.384424 -1.591987 0.772703 2.033099 -17.635060 -4.622745 2.181152 3.427472 -7.836560 6.586404 8.274027 -7.710613 35.313331 45.254842 4.457756 17.015379 25.576506 21.383973 29.841226 3.195975 -11.518397 -7.683970 3.915779 -5.557698 -35.332801 48.221982 -9.312190 -11.031537 27.007188 -17.830784 -31.746357 16.994960 6.700031 -0.305319 -6.089131 -1.686373 2.006472 -2.799407 -8.016164 -1.422215 5.232188 1.745722 -0.087455 -0.047063 -0.007168 -0.335437 -7.398244 2.467341 0.369857 -1.306034 -0.076769 -0.254985 5.256266 1.589610 0.094177 0.022867 0.005009 
11.845063 5.417776 82.993431 -3.328775 -0.951955 -108.713806 -1.217970 -4.914220 2.370015 -0.519374 -2.190273 1.050674 -0.519374 -2.190273 1.050672 -0.385717 -1.643605 0.786045 2.012181 -17.863544 -4.572187 2.170205 3.003785 -7.746795 6.254084 8.736658 -7.996664 34.168107 44.993304 3.753378 16.015880 24.149529 20.663940 30.270534 1.647939 -12.161597 -7.592005 4.437629 -5.417966 -33.905319 48.473593 -8.562177 -10.536088 26.220881 -17.472365 -31.588716 15.107031 8.043740 -0.294706 -6.008340 -1.658547 1.996888 -2.774511 -8.083590 -1.413288 5.201957 1.749828 -0.079988 -0.043262 -0.007159 -0.321456 -7.313324 2.480637 0.360609 -1.266769 -0.101865 -0.278140 5.208551 1.553078 0.089730 0.015187 0.004892 
11.815277 5.417693 82.996140 -3.282973 -0.927544 -108.659308 -1.230400 -5.077733 2.429484 -0.523256 -2.263003 1.075471 -0.523256 -2.263003 1.075476 -0.388409 -1.698182 0.804561 1.994512 -18.138495 -4.505798 2.172325 2.494366 -7.626367 5.982484 9.119554 -8.201862 32.991829 44.727678 3.012586 15.002524 22.695344 20.010412 30.755543 0.131387 -12.834420 -7.466922 4.908632 -5.303115 -32.562838 48.526103 -7.866932 -10.155304 25.708328 -17.259302 -31.568113 13.451946 9.438563 -0.292710 -5.953477 -1.654836 1.998913 -2.749388 -8.143133 -1.409082 5.171327 1.768856 -0.074305 -0.037755 -0.007942 -0.313185 -7.250416 2.482904 0.356407 -1.231878 -0.129667 -0.303449 5.158862 1.529278 0.087248 0.013053 0.005224 
